<svg version="1.2" xmlns="http://www.w3.org/2000/svg" viewBox="0 0 1585 347" width="1585" height="347">
	<title>aerotrace logo</title>
	<style>
		.s0 { fill: #000000;stroke: #000000;stroke-miterlimit:100 } 
		.s1 { fill: #101510 } 
		.s2 { fill: #71dc71 } 
		.s3 { fill: #71dc71;stroke: #000000;stroke-miterlimit:100 } 
	</style>
	<path id="Shape 1" class="s0" d="m-301-556h42v1h-42z"/>
	<g id="Full logo">
		<path id="AeroTrace" class="s1" aria-label="AeroTrace"  d="m73.2 346.5q-12.8 0-22.5-2.1-9.7-2.1-17-10-6.9-8-6.9-24.6 0-23.2 13.9-62.4 14.2-39.2 37-78.7-17.3 1.1-27.3 5.2-10.1 4.2-13.2 12.9 1.4 0 2.8 3.4 1.7 3.5 1.7 7.3 0 6.2-5.5 10.1-5.6 3.4-13.9 3.4-9.7 0-15.6-5.2-5.9-5.2-5.9-14.9 0-11.8 9-21.5 9.4-9.7 25.7-15.2 16.2-5.9 36-5.9 7.3 0 18 1 28.4-45 60-73.4 31.8-28.8 60.6-28.8 16.6 0 27.4 4.9l-54.4 255h-49.9l26.7-125.8q-12.9-5.9-23.6-8.6-10.8-2.8-22.9-3.9-19.7 42.7-32.5 87.4-12.5 44.3-12.5 71 0 13.2 4.8 19.4zm89.8-180.5l20.1-94.3q-14.9 8-31.2 29.8-16 21.5-31.2 52.3 24.9 4.9 42.3 12.2zm115.7 143.1q-25.6 0-39.8-13.2-14.3-13.5-14.3-41.9 0-23.9 9.4-52.7 9.4-28.7 30.5-49.5 21.1-21.2 53.7-21.2 38.1 0 38.1 33.3 0 19.4-11.1 35.7-11.1 16.3-29.4 26.3-18.4 9.7-39.2 11.1-0.7 10.4-0.7 13.9 0 16.9 5.9 23.2 5.9 5.9 19.1 5.9 18.7 0 31.9-8.7 13.5-8.7 29.4-26.3h11.8q-38.5 64.1-95.3 64.1zm0.7-88.7q12.8-0.7 24.3-9 11.7-8.4 18.7-21.2 7.2-12.8 7.2-27 0-14.2-8.6-14.2-12.5 0-24.6 21.8-11.8 21.9-17 49.6zm69.6 86.6l36.8-173.3h49.9l-4.5 21.5q11.7-10.4 21.1-15.9 9.7-5.6 20.8-5.6 11.1 0 17.3 7.7 6.6 7.6 6.6 18.3 0 10.1-6.6 17.7-6.6 7.6-18.4 7.6-7.6 0-10.3-3.4-2.5-3.8-3.9-10.8-1-4.5-2-6.6-1.1-2-3.8-2-7.3 0-12.5 3.1-4.9 2.8-12.8 10l-27.8 131.7zm194.1 1.4q-25.7 0-40.6-13.2-14.9-13.1-14.9-41.6 0-23.9 9.4-52.3 9.3-28.7 30.5-49.5 21.1-21.2 54-21.2 40.9 0 44 46.8 7.7-1.7 13.6-8.3 5.8-6.9 11-15.6h11.1q-9.3 18.7-16.6 29.5-7.3 10.3-19.1 16.9-2 32.6-13.5 57.2-11.1 24.6-29.1 38.1-18 13.2-39.8 13.2zm13.8-31.2q12.9 0 23.9-20.8 11.1-20.8 15.3-51.3-8.3-3.1-8.3-15.6 0-13.5 9.7-18-0.7-11.1-3.8-15.2-2.8-4.5-9.4-4.5-11.4 0-21.8 16.6-10.4 16.3-17 39.8-6.2 23.3-6.2 40.9 0 16.7 3.8 22.6 3.8 5.5 13.8 5.5z"/>
		<path id="AeroTrace" class="s2" aria-label="AeroTrace"  d="m715.6 307l49.2-229.4h-4.1q-30.9 0-48.2 15.6-17 15.3-17 54.4 0 12.8 2.5 18 2.4 4.9 2.4 5.6-18.7 0-28.1-7.7-9-7.9-9-25.9 0-24.6 12.1-44.7 12.2-20.5 38.5-33 26.7-12.4 67.6-12.4 22.8 0 49.2 4.1 22.2 3.8 39.5 3.8 22.2 0 40.2-7.2-0.7 22.5-11.5 33.2-10.7 10.8-31.8 10.8-11.1 0-22.2-1.8-11.1-1.7-31.5-5.9l-47.9 222.5zm99.1 0l36.8-173.3h49.9l-4.5 21.5q11.7-10.4 21.1-15.9 9.7-5.6 20.8-5.6 11.1 0 17.3 7.7 6.6 7.6 6.6 18.3 0 10.1-6.6 17.7-6.6 7.6-18.4 7.6-7.6 0-10.4-3.4-2.4-3.8-3.8-10.8-1-4.5-2-6.6-1.1-2-3.9-2-7.2 0-12.4 3.1-4.9 2.8-12.8 10l-27.8 131.7zm185.1 2.1q-19.8 0-33-13.5-13.1-13.5-13.1-42.3 0-25.6 10-53.7 10.4-28.4 30.5-47.8 20.5-19.8 48.5-19.8 14.2 0 21.2 4.9 6.9 4.8 6.9 12.8v2.4l3.8-18.4h49.9l-24.9 117.9q-1.4 5.2-1.4 11 0 14.9 14.2 14.9 9.7 0 16.6-9 7.3-9 11.4-23.5h14.6q-12.8 37.4-31.9 50.9-18.7 13.2-37.8 13.2-14.5 0-23.5-8-8.7-8.3-10.4-23.9-10.1 14.2-22.5 23.2-12.2 8.7-29.1 8.7zm22.5-33.6q8.6 0 17-8 8.6-8.3 11.7-22.5l16.7-78.3q0-4.5-3.5-8.7-3.5-4.5-10.7-4.5-13.9 0-25 16.3-11.1 15.9-17.3 38.8-6.2 22.5-6.2 39.8 0 17.4 4.8 22.2 5.2 4.9 12.5 4.9zm167.7 33.6q-25.7 0-39.9-13.2-14.2-13.5-14.2-41.9 0-23.9 9.4-52.7 9.7-28.7 30.5-49.5 21.1-21.2 53.3-21.2 20.8 0 29.5 9 9 9 9 22.9 0 12.1-5.2 18.7-5.2 6.6-13.2 6.6-5.8 0-12.1-4.2 4.2-11.4 4.2-20.4 0-6.6-2.5-10.4-2.4-3.8-7.2-3.8-10.4 0-20.8 17-10.4 17-17 41.2-6.6 24.3-6.6 43.7 0 16.9 5.9 23.2 5.9 5.9 19.1 5.9 18.7 0 31.8-8.7 13.6-8.7 29.5-26.3h11.8q-38.5 64.1-95.3 64.1zm132.4 0q-25.3 0-39.5-13.2-14.3-13.5-14.3-41.9 0-23.9 9.4-52.7 9.4-28.7 30.5-49.5 21.1-21.2 53.7-21.2 38.1 0 38.1 33.3 0 19.4-11.1 35.7-11.1 16.3-29.4 26.3-18.4 9.7-39.2 11.1-0.7 7.6-0.7 10.4 0 28.8 21.5 28.8 9.7 0 20.8-5.2 11.1-5.2 20.1-13.2-9.4 51.3-59.9 51.3zm0.6-88.7q13.2-0.4 24.6-8.7 11.8-8.3 18.8-21.1 7.2-13.2 7.2-27.4 0-14.2-8.6-14.2-12.2 0-24.3 22.2-11.8 21.8-17.7 49.2z"/>
		<path id="black right" class="s0" d="m1535.8 30.1c0 0 95.2 119.9-11.5 214.8-3 2.7 126.6-91.8 11.5-214.8z"/>
		<path id="green stripe" class="s2" d="m1323.3 341.9c0 0 212.8-105.5 207.9-212.5-3.4-75.4-121.1-127.9-127-129.3-6-1.5 140.3 25.2 147.6 132.2 2.2 33.5-39.1 129.7-228.5 209.6z"/>
		<path id="black left" class="s0" d="m1323.3 9.3c0 0 112.4 8.5 150.2 67 0.4 0.7-35.4-73.4-150.2-67z"/>
		<path id="disc bottom" class="s3" d="m1207.8 41.6c0 0-43.5 0.6-20.8 25.4 45.6 49.8 305.1 44.3 198.7-6.9"/>
		<path id="bottom shadow" class="s0" d="m1185.1 47.8c0 0-17.3 8.3 8.9 28.5 26.2 20.2 106.8 29.9 123.7 29.9 16.9 0 62.8 2.4 82.8-10.5 17.4-11.3 8.3-19.4 8.3-19.4 0 0 4.3 10.2-13.9 16.2-18.1 5.9-29.6 7.3-50.9 7.3-21.3 0-50.4 1.1-80.1-5.7-29.6-6.8-60.9-14.1-74.1-30-7.5-9.1-6.9-10.4-4.7-16.3z"/>
		<path id="disc top" class="s3" d="m1293.8 80.3c-51.5-5.9-92.1-21.7-90.8-35.3 1.4-13.6 44.1-19.9 95.6-14 51.5 5.9 92 21.7 90.7 35.3-1.3 13.6-44 19.9-95.5 14z"/>
		<path id="top shadow" class="s0" d="m1210.1 37c0 0-24.2 21.8 53.2 37 77.3 15.1 113.2 2.1 113.2 2.1 0 0 15.8-4.8 9.2-18.3-1.3-2.7 10.4 9.2 5 15.4-10.2 12-55.3 11.5-55.3 11.5 0 0-69.8-3-113.6-19.9-43.8-16.9-11.7-27.7-11.7-27.7"/>
	</g>
</svg>